<?xml version="1.0" encoding="utf-8" ?>
<svg xmlns="http://www.w3.org/2000/svg" xmlns:xlink="http://www.w3.org/1999/xlink" width="1024" height="1024">
	<path fill="#00FF82" d="M331.281 542.405C330.802 552.486 327.071 562.68 325.153 572.601C340.361 567.97 356.031 562.577 371.66 559.71C361.256 564.439 351.234 570.249 341.193 575.704C329.016 582.076 317.805 589.961 305.9 596.765Q314.281 577.603 323.198 558.685C325.75 553.297 328.079 547.436 331.281 542.405Z"/>
	<path fill="#00FF82" d="M349.58 388.392C350.275 392.613 342.998 411.166 341.338 415.974C355.722 412.133 370.235 407.407 384.962 405.123C376.232 410.361 362.723 416.032 353.175 420.689C341.039 426.462 329.1 432.504 316.83 438.014C327.782 421.484 338.403 404.777 349.58 388.392Z"/>
	<path fill="#00FF82" d="M557.188 226.494C580.48 224.629 621.407 235.442 642.487 245.74C638.536 246.758 632.917 248.16 628.895 247.973C615.021 245.138 601.533 241.997 587.471 240.074C572.56 238.036 557.411 237.428 542.39 236.7Q549.671 231.425 557.188 226.494Z"/>
	<path fill="#00FF82" d="M611.516 474.071C612.864 474.813 617.497 482.926 618.842 484.876C623.959 492.297 629.972 498.06 636.686 503.996C609.582 501.087 583.254 508.243 557.137 514.493L499.854 528.589Q450.974 540.215 401.891 550.949Q389.729 553.607 377.521 556.048C394.448 548.385 412.321 542.412 429.789 536.137C447.608 529.735 465.33 523.141 483.235 516.968C525.872 502.267 568.345 487.173 611.516 474.071Z"/>
	<path fill="#00FF82" d="M631.852 109.43L632.253 110.038C630.721 118.498 628.522 126.98 625.91 135.173C617.26 162.298 597.516 188.741 576.146 207.328C560.488 220.948 534.056 237.411 515.558 247.371C506.363 252.322 496.75 256.378 487.48 261.161C505.112 261.876 522.612 262.859 540.229 263.878C532.86 266.012 525.188 267.3 517.714 269.057Q497.265 273.926 477.014 279.561C462.602 283.602 448.425 290.183 433.762 293.033C434.476 290.527 435.569 288.184 436.613 285.802C429.817 288.687 423.3 292.126 416.64 295.303C408.959 298.967 400.857 302.329 393.792 307.109C407.087 304.273 420.219 299.787 433.267 295.977Q460.642 287.983 488.365 281.298Q587.724 258.393 688.363 241.998L738.311 233.286C745.421 232.086 752.847 230.278 760.024 229.782C772.542 228.918 786.47 235.578 795.705 243.639C799.089 246.593 801.797 249.815 804.397 253.465C817.399 271.716 828.616 291.681 840.311 310.809C845.492 319.282 853.036 329.514 857.122 338.261Q857.831 339.811 858.393 341.42Q858.955 343.029 859.366 344.684Q859.776 346.338 860.032 348.023Q860.288 349.708 860.386 351.41C860.883 360.587 857.404 369.091 851.228 375.778C846.634 380.753 840.778 385.197 834.471 387.744C818.846 394.055 792.672 392.009 775.844 389.87C766.911 388.735 757.194 386.783 748.194 387.493C746.995 387.587 745.995 387.554 745.158 388.479C746.858 392.363 749.064 396.037 750.83 399.897C754.027 406.883 756.401 415.158 758.16 422.615C763.15 443.771 763.103 466.391 756.325 487.14C749.511 508.003 736.493 527.912 724.02 545.804Q707.716 568.866 689.796 590.696Q671.876 612.527 652.434 633.013C610.996 677.428 568.177 718.33 535.957 770.428C508.245 815.238 486.409 875.776 498.888 928.826Q492.011 915.913 484.57 903.317Q477.128 890.722 469.137 878.467Q461.145 866.213 452.619 854.324Q444.094 842.436 435.05 830.936C399.716 786.566 359.89 745.926 325.103 701.077C314.605 687.542 305.53 673.509 295.959 659.363C283.395 659.67 270.67 660.474 258.409 657.158C226.15 648.433 207.238 617.05 193.944 588.603C190.537 581.311 187.951 573.643 184.467 566.387C180.682 558.503 175.904 551.23 171.559 543.659C163.58 529.754 162.176 516.71 166.394 501.255C174.94 469.936 208.698 439.24 236.538 423.38C220.541 448.735 203.787 461.299 194.237 492.086C190.29 504.809 187.102 519.801 193.321 532.258C196.094 537.815 199.858 542.861 202.902 548.273C207.866 557.101 211.845 566.523 216.578 575.486C226.56 594.392 239.645 619.535 259.884 628.741C270.945 633.773 283.636 634.07 295.555 633.356C309.169 632.54 322.57 629.907 335.92 627.246Q366.799 621.231 397.127 612.87Q465.054 594.558 531.919 572.682Q546.473 567.803 560.82 562.345C567.363 559.833 574.377 556.46 581.22 554.943C583.39 554.462 585.014 554.755 587.11 555.453C590.744 556.663 593.941 559.904 595.583 563.32C596.711 565.669 596.62 567.589 596.105 570.112C594.426 578.345 590.012 586.807 587.047 594.689C583.581 603.898 580.686 613.36 577.643 622.717C538.848 636.893 503.168 679.524 478.826 711.655C461.649 688.323 441.734 667.543 414.766 655.67C406.89 652.203 398.539 649.718 390.368 647.034Q431.278 636.913 471.585 624.61Q511.892 612.307 551.48 597.857C554.409 596.811 557.485 596.179 560.429 595.167C562.583 594.426 564.841 593.691 565.872 591.538L565.516 590.683C559.763 591.303 548.176 595.965 542.165 597.894C522.657 604.154 503.126 610.62 483.51 616.521Q441.397 628.881 398.787 639.405C373.653 645.667 348.649 651.786 323.214 656.728C330.307 668.069 341.431 680.438 350.083 690.787C369.741 714.304 390.39 737.042 410.584 760.102C424.928 776.48 439.88 793.101 451.836 811.336C463.53 829.171 472.503 848.215 479.795 868.242C482.955 876.922 484.977 886.684 489.077 894.945C489.146 895.084 489.218 895.221 489.289 895.359Q487.814 886.472 486.832 877.518C480.115 813.167 508.085 757.576 547.611 708.739C567.871 682.892 591.01 659.346 613.662 635.618C645.937 601.81 677.79 567.699 704.57 529.261C716.491 512.149 728.6 493.23 734.013 472.925C741.304 445.57 730.658 418.955 717.108 395.442C701.067 400.452 684.717 404.201 668.452 408.379L610.295 423.738L452.149 467.274Q403.324 481.054 354.772 495.771C327.099 503.901 299.277 511.87 270.86 516.977C253.154 520.16 232.042 522.895 214.839 516.714C209.256 514.708 203.98 511.363 201.478 505.759C197.251 496.29 201.002 485.558 204.506 476.553L204.408 478.651C204.312 480.373 204.218 482.017 204.456 483.735C205.219 489.23 207.998 493.818 212.444 497.113C224.186 505.818 242.65 504.191 256.186 502.207C252.094 487.289 249.195 471.978 245.93 456.862C241.489 436.303 237.453 415.897 234.398 395.076C232.775 384.018 231.068 372.696 230.934 361.501C230.86 355.277 231.545 348.659 233.627 342.759C236.684 334.098 242.988 325.055 250.189 319.333C255.806 314.87 262.318 311.408 268.521 307.826C279.474 301.503 290.595 295.496 301.572 289.218Q388.067 240.426 478.284 198.919L556.465 163.248Q575.264 154.654 593.48 144.885C600.966 140.821 608.187 135.974 615.887 132.371C606.748 139.976 598.88 149.076 589.664 156.716C570.068 172.961 548.171 186.044 526.45 199.189C495.6 217.858 463.552 233.279 431.595 249.776C415.014 258.336 398.255 266.666 381.832 275.517C369.19 282.33 356.793 289.644 344.11 296.354Q319.386 309.435 295.103 323.317C286.171 328.342 276.484 333.133 268.154 339.082C265.081 341.277 262.462 344.252 260.567 347.518C255.5 356.256 258.028 368.394 258.974 377.952C262.971 418.356 273.771 456.772 284.476 495.759C294.58 494.36 304.738 491.38 314.665 489.007Q343.836 482.065 372.894 474.663C399.018 468.154 425.297 461.765 451.278 454.737C514.935 437.517 578.195 419.198 642.614 404.916C666.121 399.704 689.751 393.014 713.597 389.72C703.017 371.174 686.519 354.302 671.495 339.277C665.803 339.848 659.973 341.419 654.33 342.49C643.992 344.451 633.663 346.287 623.351 348.404C583.78 356.527 544.616 365.887 505.262 374.957C481.598 380.411 457.849 385.948 434.075 390.865C418.514 394.083 402.395 396.486 387.046 400.543Q390.051 399.025 393.15 397.708C403.962 393.094 415.183 389.235 426.226 385.198Q463.347 371.415 501.153 359.641C580.623 334.198 667.096 307.847 751.249 310.973C773.364 311.794 795.773 314.39 816.434 322.722C811.245 314.391 805.922 306.148 800.806 297.771C792.544 284.243 783.953 265.115 768.368 258.663C765.882 257.634 763.534 257.248 760.859 257.24C753.648 257.219 746.054 259.196 738.975 260.485Q727.975 262.439 716.935 264.155Q648.459 275.011 580.513 288.805Q506.351 305.06 432.965 324.523Q406.356 331.293 379.847 338.443C370.9 340.884 361.435 344.567 352.319 345.896C350.293 346.192 348.115 346.013 346.154 345.435Q345.53 345.253 344.927 345.01Q344.324 344.767 343.749 344.465Q343.173 344.163 342.63 343.805Q342.088 343.448 341.583 343.038Q341.079 342.628 340.618 342.169Q340.157 341.711 339.744 341.209Q339.331 340.707 338.97 340.166Q338.609 339.626 338.304 339.052C336.899 336.387 336.734 333.312 337.681 330.471C338.249 328.763 339.218 327.168 340.28 325.727C343.886 320.836 371.349 287.374 373.809 285.706C376.985 283.553 381.133 282.186 384.64 280.6Q394.402 276.113 404.096 271.482L500.51 225.983Q515.292 219.086 529.523 211.115Q543.755 203.145 557.359 194.145C582.234 177.62 603.118 159.91 619.241 134.408C624.05 126.801 628.636 118.61 631.625 110.089L631.852 109.43Z"/>
</svg>
